<mxfile host="app.diagrams.net" modified="2023-05-29T11:47:44.664Z" agent="Mozilla/5.0 (Macintosh; Intel Mac OS X 10_15_7) AppleWebKit/605.1.15 (KHTML, like Gecko) Version/16.4 Safari/605.1.15" etag="9Tqbi2mf0lTWBdbp89u9" version="21.3.5" type="github">
  <diagram name="Page-1" id="C__e7VtskfnmAWxqKD70">
    <mxGraphModel dx="1279" dy="802" grid="1" gridSize="10" guides="1" tooltips="1" connect="1" arrows="1" fold="1" page="1" pageScale="1" pageWidth="827" pageHeight="1169" math="0" shadow="0">
      <root>
        <mxCell id="0" />
        <mxCell id="1" parent="0" />
        <mxCell id="r9G422Ajz-nZdocp6D6y-13" value="" style="edgeStyle=orthogonalEdgeStyle;rounded=0;orthogonalLoop=1;jettySize=auto;html=1;" edge="1" parent="1" source="r9G422Ajz-nZdocp6D6y-4" target="r9G422Ajz-nZdocp6D6y-6">
          <mxGeometry relative="1" as="geometry" />
        </mxCell>
        <mxCell id="r9G422Ajz-nZdocp6D6y-4" value="" style="html=1;dashed=0;whiteSpace=wrap;" vertex="1" parent="1">
          <mxGeometry x="270" y="140" width="190" height="330" as="geometry" />
        </mxCell>
        <mxCell id="r9G422Ajz-nZdocp6D6y-2" value="" style="sketch=0;points=[[0,0,0],[0.25,0,0],[0.5,0,0],[0.75,0,0],[1,0,0],[0,1,0],[0.25,1,0],[0.5,1,0],[0.75,1,0],[1,1,0],[0,0.25,0],[0,0.5,0],[0,0.75,0],[1,0.25,0],[1,0.5,0],[1,0.75,0]];outlineConnect=0;fontColor=#232F3E;gradientColor=#60A337;gradientDirection=north;fillColor=#277116;strokeColor=#ffffff;dashed=0;verticalLabelPosition=bottom;verticalAlign=top;align=center;html=1;fontSize=12;fontStyle=0;aspect=fixed;shape=mxgraph.aws4.resourceIcon;resIcon=mxgraph.aws4.s3;" vertex="1" parent="1">
          <mxGeometry x="240" y="102" width="78" height="78" as="geometry" />
        </mxCell>
        <mxCell id="r9G422Ajz-nZdocp6D6y-14" value="" style="edgeStyle=orthogonalEdgeStyle;rounded=0;orthogonalLoop=1;jettySize=auto;html=1;" edge="1" parent="1" source="r9G422Ajz-nZdocp6D6y-6" target="r9G422Ajz-nZdocp6D6y-9">
          <mxGeometry relative="1" as="geometry" />
        </mxCell>
        <mxCell id="r9G422Ajz-nZdocp6D6y-6" value="DMS" style="sketch=0;points=[[0,0,0],[0.25,0,0],[0.5,0,0],[0.75,0,0],[1,0,0],[0,1,0],[0.25,1,0],[0.5,1,0],[0.75,1,0],[1,1,0],[0,0.25,0],[0,0.5,0],[0,0.75,0],[1,0.25,0],[1,0.5,0],[1,0.75,0]];outlineConnect=0;fontColor=#232F3E;gradientColor=#4D72F3;gradientDirection=north;fillColor=#3334B9;strokeColor=#ffffff;dashed=0;verticalLabelPosition=bottom;verticalAlign=top;align=center;html=1;fontSize=14;fontStyle=0;aspect=fixed;shape=mxgraph.aws4.resourceIcon;resIcon=mxgraph.aws4.database_migration_service;" vertex="1" parent="1">
          <mxGeometry x="530" y="266" width="78" height="78" as="geometry" />
        </mxCell>
        <mxCell id="r9G422Ajz-nZdocp6D6y-7" value="" style="outlineConnect=0;dashed=0;verticalLabelPosition=bottom;verticalAlign=top;align=center;html=1;shape=mxgraph.aws3.lambda_function;fillColor=#F58534;gradientColor=none;" vertex="1" parent="1">
          <mxGeometry x="330.5" y="180" width="69" height="72" as="geometry" />
        </mxCell>
        <mxCell id="r9G422Ajz-nZdocp6D6y-8" value="" style="sketch=0;points=[[0,0,0],[0.25,0,0],[0.5,0,0],[0.75,0,0],[1,0,0],[0,1,0],[0.25,1,0],[0.5,1,0],[0.75,1,0],[1,1,0],[0,0.25,0],[0,0.5,0],[0,0.75,0],[1,0.25,0],[1,0.5,0],[1,0.75,0]];outlineConnect=0;fontColor=#232F3E;gradientColor=#945DF2;gradientDirection=north;fillColor=#5A30B5;strokeColor=#ffffff;dashed=0;verticalLabelPosition=bottom;verticalAlign=top;align=center;html=1;fontSize=12;fontStyle=0;aspect=fixed;shape=mxgraph.aws4.resourceIcon;resIcon=mxgraph.aws4.glue;" vertex="1" parent="1">
          <mxGeometry x="326" y="345" width="78" height="78" as="geometry" />
        </mxCell>
        <mxCell id="r9G422Ajz-nZdocp6D6y-30" style="edgeStyle=orthogonalEdgeStyle;rounded=0;orthogonalLoop=1;jettySize=auto;html=1;exitX=0.5;exitY=1;exitDx=0;exitDy=0;exitPerimeter=0;entryX=0;entryY=0.5;entryDx=0;entryDy=0;" edge="1" parent="1" source="r9G422Ajz-nZdocp6D6y-9" target="r9G422Ajz-nZdocp6D6y-26">
          <mxGeometry relative="1" as="geometry" />
        </mxCell>
        <mxCell id="r9G422Ajz-nZdocp6D6y-9" value="RDS" style="sketch=0;points=[[0,0,0],[0.25,0,0],[0.5,0,0],[0.75,0,0],[1,0,0],[0,1,0],[0.25,1,0],[0.5,1,0],[0.75,1,0],[1,1,0],[0,0.25,0],[0,0.5,0],[0,0.75,0],[1,0.25,0],[1,0.5,0],[1,0.75,0]];outlineConnect=0;fontColor=#232F3E;gradientColor=#4D72F3;gradientDirection=north;fillColor=#3334B9;strokeColor=#ffffff;dashed=0;verticalLabelPosition=bottom;verticalAlign=top;align=center;html=1;fontSize=14;fontStyle=0;aspect=fixed;shape=mxgraph.aws4.resourceIcon;resIcon=mxgraph.aws4.rds;" vertex="1" parent="1">
          <mxGeometry x="690" y="266" width="78" height="78" as="geometry" />
        </mxCell>
        <mxCell id="r9G422Ajz-nZdocp6D6y-12" value="" style="edgeStyle=orthogonalEdgeStyle;html=1;endArrow=block;elbow=vertical;startArrow=none;endFill=1;strokeColor=#545B64;rounded=0;entryX=0.5;entryY=0;entryDx=0;entryDy=0;entryPerimeter=0;exitX=0.5;exitY=1;exitDx=0;exitDy=0;exitPerimeter=0;" edge="1" parent="1" source="r9G422Ajz-nZdocp6D6y-7" target="r9G422Ajz-nZdocp6D6y-8">
          <mxGeometry width="100" relative="1" as="geometry">
            <mxPoint x="314" y="304.5" as="sourcePoint" />
            <mxPoint x="414" y="304.5" as="targetPoint" />
          </mxGeometry>
        </mxCell>
        <mxCell id="r9G422Ajz-nZdocp6D6y-18" value="" style="edgeStyle=orthogonalEdgeStyle;rounded=0;orthogonalLoop=1;jettySize=auto;html=1;" edge="1" parent="1" source="r9G422Ajz-nZdocp6D6y-17" target="r9G422Ajz-nZdocp6D6y-4">
          <mxGeometry relative="1" as="geometry" />
        </mxCell>
        <mxCell id="r9G422Ajz-nZdocp6D6y-17" value="New Data" style="image;aspect=fixed;html=1;points=[];align=center;fontSize=14;image=img/lib/azure2/databases/SQL_Database.svg;" vertex="1" parent="1">
          <mxGeometry x="120" y="258" width="70.5" height="94" as="geometry" />
        </mxCell>
        <mxCell id="r9G422Ajz-nZdocp6D6y-20" value="Tigger" style="text;html=1;align=center;verticalAlign=middle;resizable=0;points=[];autosize=1;strokeColor=none;fillColor=none;fontSize=14;" vertex="1" parent="1">
          <mxGeometry x="193" y="275" width="60" height="30" as="geometry" />
        </mxCell>
        <mxCell id="r9G422Ajz-nZdocp6D6y-21" value="Invoke" style="text;html=1;align=center;verticalAlign=middle;resizable=0;points=[];autosize=1;strokeColor=none;fillColor=none;fontSize=14;" vertex="1" parent="1">
          <mxGeometry x="360" y="280" width="70" height="30" as="geometry" />
        </mxCell>
        <mxCell id="r9G422Ajz-nZdocp6D6y-22" value="&lt;font style=&quot;font-size: 14px;&quot;&gt;Transformation&lt;/font&gt;" style="text;html=1;align=center;verticalAlign=middle;resizable=0;points=[];autosize=1;strokeColor=none;fillColor=none;" vertex="1" parent="1">
          <mxGeometry x="305" y="470" width="120" height="30" as="geometry" />
        </mxCell>
        <mxCell id="r9G422Ajz-nZdocp6D6y-23" value="Capture" style="text;html=1;align=center;verticalAlign=middle;resizable=0;points=[];autosize=1;strokeColor=none;fillColor=none;fontSize=14;" vertex="1" parent="1">
          <mxGeometry x="455" y="275" width="80" height="30" as="geometry" />
        </mxCell>
        <mxCell id="r9G422Ajz-nZdocp6D6y-24" value="Update" style="text;html=1;align=center;verticalAlign=middle;resizable=0;points=[];autosize=1;strokeColor=none;fillColor=none;fontSize=14;" vertex="1" parent="1">
          <mxGeometry x="611" y="275" width="70" height="30" as="geometry" />
        </mxCell>
        <mxCell id="r9G422Ajz-nZdocp6D6y-38" value="" style="edgeStyle=orthogonalEdgeStyle;rounded=0;orthogonalLoop=1;jettySize=auto;html=1;startArrow=classic;startFill=1;" edge="1" parent="1" source="r9G422Ajz-nZdocp6D6y-25" target="r9G422Ajz-nZdocp6D6y-32">
          <mxGeometry relative="1" as="geometry" />
        </mxCell>
        <mxCell id="r9G422Ajz-nZdocp6D6y-25" value="SageMaker /&lt;br style=&quot;font-size: 14px;&quot;&gt;Model" style="sketch=0;points=[[0,0,0],[0.25,0,0],[0.5,0,0],[0.75,0,0],[1,0,0],[0,1,0],[0.25,1,0],[0.5,1,0],[0.75,1,0],[1,1,0],[0,0.25,0],[0,0.5,0],[0,0.75,0],[1,0.25,0],[1,0.5,0],[1,0.75,0]];outlineConnect=0;fontColor=#232F3E;gradientColor=#4AB29A;gradientDirection=north;fillColor=#116D5B;strokeColor=#ffffff;dashed=0;verticalLabelPosition=bottom;verticalAlign=top;align=center;html=1;fontSize=14;fontStyle=0;aspect=fixed;shape=mxgraph.aws4.resourceIcon;resIcon=mxgraph.aws4.sagemaker;" vertex="1" parent="1">
          <mxGeometry x="870" y="140" width="78" height="78" as="geometry" />
        </mxCell>
        <mxCell id="r9G422Ajz-nZdocp6D6y-26" value="" style="shape=image;verticalLabelPosition=bottom;labelBackgroundColor=default;verticalAlign=top;aspect=fixed;imageAspect=0;image=https://logos-world.net/wp-content/uploads/2021/10/Tableau-Emblem.png;" vertex="1" parent="1">
          <mxGeometry x="819.5" y="390" width="179" height="100.69" as="geometry" />
        </mxCell>
        <mxCell id="r9G422Ajz-nZdocp6D6y-28" value="" style="edgeStyle=orthogonalEdgeStyle;html=1;endArrow=block;elbow=vertical;startArrow=none;endFill=1;strokeColor=#545B64;rounded=0;entryX=0;entryY=0.5;entryDx=0;entryDy=0;entryPerimeter=0;exitX=0.5;exitY=0;exitDx=0;exitDy=0;exitPerimeter=0;" edge="1" parent="1" source="r9G422Ajz-nZdocp6D6y-9" target="r9G422Ajz-nZdocp6D6y-25">
          <mxGeometry width="100" relative="1" as="geometry">
            <mxPoint x="720" y="230" as="sourcePoint" />
            <mxPoint x="820" y="230" as="targetPoint" />
          </mxGeometry>
        </mxCell>
        <mxCell id="r9G422Ajz-nZdocp6D6y-29" value="Periodically update" style="text;html=1;align=center;verticalAlign=middle;resizable=0;points=[];autosize=1;strokeColor=none;fillColor=none;fontSize=14;" vertex="1" parent="1">
          <mxGeometry x="720" y="150" width="150" height="30" as="geometry" />
        </mxCell>
        <mxCell id="r9G422Ajz-nZdocp6D6y-31" value="Update" style="text;html=1;align=center;verticalAlign=middle;resizable=0;points=[];autosize=1;strokeColor=none;fillColor=none;fontSize=14;" vertex="1" parent="1">
          <mxGeometry x="740" y="410" width="70" height="30" as="geometry" />
        </mxCell>
        <mxCell id="r9G422Ajz-nZdocp6D6y-32" value="&lt;font style=&quot;font-size: 14px;&quot;&gt;Application&amp;nbsp;&lt;/font&gt;" style="shape=image;html=1;verticalAlign=top;verticalLabelPosition=bottom;labelBackgroundColor=#ffffff;imageAspect=0;aspect=fixed;image=https://cdn4.iconfinder.com/data/icons/essentials-74/24/004_-_Website-128.png" vertex="1" parent="1">
          <mxGeometry x="1110" y="134" width="90" height="90" as="geometry" />
        </mxCell>
        <mxCell id="r9G422Ajz-nZdocp6D6y-39" value="Input data (request)" style="text;html=1;align=center;verticalAlign=middle;resizable=0;points=[];autosize=1;strokeColor=none;fillColor=none;fontSize=14;" vertex="1" parent="1">
          <mxGeometry x="953" y="150" width="150" height="30" as="geometry" />
        </mxCell>
        <mxCell id="r9G422Ajz-nZdocp6D6y-40" value="Inference (response)" style="text;html=1;align=center;verticalAlign=middle;resizable=0;points=[];autosize=1;strokeColor=none;fillColor=none;fontSize=14;" vertex="1" parent="1">
          <mxGeometry x="948" y="180" width="160" height="30" as="geometry" />
        </mxCell>
      </root>
    </mxGraphModel>
  </diagram>
</mxfile>
